<svg width="31" height="34" viewBox="0 0 31 34" fill="none" xmlns="http://www.w3.org/2000/svg">
<path d="M24.7471 25.7734V28H10.7871V26.0518L17.7744 18.2734C18.6338 17.3164 19.2979 16.5059 19.7666 15.8418C20.2451 15.168 20.5771 14.5674 20.7627 14.04C20.958 13.5029 21.0557 12.9561 21.0557 12.3994C21.0557 11.6963 20.9092 11.0615 20.6162 10.4951C20.333 9.91895 19.9131 9.45996 19.3564 9.11816C18.7998 8.77637 18.126 8.60547 17.335 8.60547C16.3877 8.60547 15.5967 8.79102 14.9619 9.16211C14.3369 9.52344 13.8682 10.0312 13.5557 10.6855C13.2432 11.3398 13.0869 12.0918 13.0869 12.9414H10.377C10.377 11.7402 10.6406 10.6416 11.168 9.64551C11.6953 8.64941 12.4766 7.8584 13.5117 7.27246C14.5469 6.67676 15.8213 6.37891 17.335 6.37891C18.6826 6.37891 19.835 6.61816 20.792 7.09668C21.749 7.56543 22.4814 8.22949 22.9893 9.08887C23.5068 9.93848 23.7656 10.9346 23.7656 12.0771C23.7656 12.7021 23.6582 13.3369 23.4434 13.9814C23.2383 14.6162 22.9502 15.251 22.5791 15.8857C22.2178 16.5205 21.793 17.1455 21.3047 17.7607C20.8262 18.376 20.3135 18.9814 19.7666 19.5771L14.0537 25.7734H24.7471Z" fill="white"/>
<path d="M27.7471 25.7734V22.7734H24.7471H20.9002L21.9722 21.6107L21.9766 21.606C22.5732 20.956 23.1359 20.2921 23.6638 19.6141C24.2329 18.8958 24.7394 18.153 25.1778 17.3848C25.6409 16.5904 26.0178 15.7676 26.2938 14.9168C26.599 13.9971 26.7656 13.0468 26.7656 12.0771C26.7656 10.474 26.3988 8.92723 25.5618 7.54537C24.7381 6.15924 23.5574 5.11304 22.1226 4.40787C20.6579 3.67813 19.0263 3.37891 17.335 3.37891C15.4379 3.37891 13.6192 3.75195 12.0248 4.66687C10.5245 5.5182 9.32541 6.7141 8.51661 8.24184C7.74531 9.69873 7.37695 11.284 7.37695 12.9414V15.9414H10.377H13.0869H15.8337C15.7403 16.0475 15.6433 16.1566 15.5427 16.2686C15.5425 16.2688 15.5424 16.2689 15.5423 16.2691L8.55535 24.047L7.78711 24.9022V26.0518V28V28.1445L7.20725 28.7734H7.78711V31H10.7871H24.7471H27.7471V28V25.7734ZM17.3157 14.1117C17.0305 14.5158 16.6264 15.0265 16.0869 15.6512V12.9414C16.0869 12.4629 16.1735 12.1654 16.2628 11.9785C16.3155 11.8681 16.3652 11.8161 16.4634 11.7593L16.4697 11.7557L16.476 11.752C16.537 11.7163 16.7696 11.6055 17.335 11.6055C17.5153 11.6055 17.6307 11.625 17.6961 11.6416C17.7583 11.6574 17.7825 11.6721 17.7867 11.6747C17.869 11.7252 17.8954 11.7605 17.9239 11.8185L17.9374 11.8461L17.9516 11.8734C18.0023 11.9714 18.0557 12.1258 18.0557 12.3994C18.0557 12.597 18.0224 12.7974 17.9433 13.0148L17.938 13.0295L17.9328 13.0443C17.8729 13.2146 17.7067 13.5611 17.3206 14.1048L17.3206 14.1048L17.3157 14.1117Z" stroke="black" stroke-opacity="0.1" stroke-width="6"/>
</svg>
