<svg width="28" height="35" viewBox="0 0 28 35" fill="none" xmlns="http://www.w3.org/2000/svg">
<path d="M12.7129 16.0176H14.749C16.0283 15.998 17.0342 15.6611 17.7666 15.0068C18.499 14.3525 18.8652 13.4688 18.8652 12.3555C18.8652 9.85547 17.6201 8.60547 15.1299 8.60547C13.958 8.60547 13.0205 8.94238 12.3174 9.61621C11.624 10.2803 11.2773 11.1641 11.2773 12.2676H8.56738C8.56738 10.5781 9.18262 9.17676 10.4131 8.06348C11.6533 6.94043 13.2256 6.37891 15.1299 6.37891C17.1416 6.37891 18.7188 6.91113 19.8613 7.97559C21.0039 9.04004 21.5752 10.5195 21.5752 12.4141C21.5752 13.3418 21.2725 14.2402 20.667 15.1094C20.0713 15.9785 19.2559 16.6279 18.2207 17.0576C19.3926 17.4287 20.2959 18.0439 20.9307 18.9033C21.5752 19.7627 21.8975 20.8125 21.8975 22.0527C21.8975 23.9668 21.2725 25.4854 20.0225 26.6084C18.7725 27.7314 17.1465 28.293 15.1445 28.293C13.1426 28.293 11.5117 27.751 10.252 26.667C9.00195 25.583 8.37695 24.1523 8.37695 22.375H11.1016C11.1016 23.498 11.4678 24.3965 12.2002 25.0703C12.9326 25.7441 13.9141 26.0811 15.1445 26.0811C16.4531 26.0811 17.4541 25.7393 18.1475 25.0557C18.8408 24.3721 19.1875 23.3906 19.1875 22.1113C19.1875 20.8711 18.8066 19.9189 18.0449 19.2549C17.2832 18.5908 16.1846 18.249 14.749 18.2295H12.7129V16.0176Z" fill="white"/>
<path d="M9.71289 15.2676H8.56738H5.56738V12.2676C5.56738 9.74836 6.52806 7.53328 8.39943 5.8397L9.71289 15.2676ZM9.71289 15.2676V16.0176V17.341L9.48149 17.437L9.71289 17.5103V18.2295V19.375H8.37695H5.37695V22.375C5.37695 24.949 6.32613 27.2335 8.28649 28.9335L8.28647 28.9335L8.29523 28.941C10.2054 30.5847 12.5781 31.293 15.1445 31.293C17.7372 31.293 20.1249 30.5494 22.0274 28.84C24.0021 27.0659 24.8975 24.6871 24.8975 22.0527C24.8975 20.2714 24.4249 18.5666 23.3373 17.1122C23.2671 17.0174 23.1952 16.9249 23.1216 16.8344C23.1261 16.8279 23.1305 16.8215 23.135 16.815C24.0357 15.5187 24.5752 14.0354 24.5752 12.4141C24.5752 9.87851 23.7852 7.53101 21.9063 5.78055C20.0624 4.06278 17.6742 3.37891 15.1299 3.37891C12.5919 3.37891 10.2687 4.1475 8.40035 5.83887L9.71289 15.2676ZM14.7234 13.0176H14.2773V12.2676C14.2773 12.0308 14.3141 11.9137 14.3302 11.8726C14.3429 11.8403 14.3561 11.8176 14.3924 11.7828L14.3931 11.7822C14.3938 11.7815 14.3946 11.7808 14.3954 11.78C14.4336 11.7431 14.5762 11.6055 15.1299 11.6055C15.4908 11.6055 15.692 11.6469 15.7904 11.6776C15.822 11.7773 15.8652 11.9834 15.8652 12.3555C15.8652 12.5817 15.8287 12.6816 15.8191 12.7049C15.8136 12.7181 15.8094 12.7246 15.8061 12.7294C15.8025 12.7343 15.7922 12.7479 15.768 12.7696C15.7197 12.8127 15.4879 13.0027 14.7234 13.0176ZM15.8688 11.7102C15.8684 11.7105 15.8633 11.708 15.8545 11.7019C15.8647 11.7068 15.8691 11.7098 15.8688 11.7102ZM15.7656 11.613C15.7599 11.6048 15.7576 11.6 15.7578 11.5997C15.7581 11.5994 15.761 11.6036 15.7656 11.613ZM14.7267 21.2295C15.7315 21.246 16.0344 21.4821 16.0735 21.5162C16.0905 21.531 16.0999 21.5398 16.1164 21.5812C16.1388 21.6372 16.1875 21.795 16.1875 22.1113C16.1875 22.4858 16.1362 22.7018 16.0988 22.8077C16.0674 22.8966 16.0436 22.9173 16.0414 22.9192C16.0413 22.9193 16.0413 22.9193 16.0412 22.9194C16.0376 22.9229 16.0312 22.9288 16.0165 22.9377C16.001 22.9471 15.9675 22.9651 15.9073 22.9857C15.7828 23.0281 15.5442 23.0811 15.1445 23.0811C14.4803 23.0811 14.2868 22.9135 14.2314 22.8625C14.1816 22.8168 14.1663 22.7881 14.1543 22.7587C14.139 22.7211 14.1016 22.6087 14.1016 22.375V21.2295H14.7267Z" stroke="black" stroke-opacity="0.1" stroke-width="6"/>
</svg>
